<svg width="21" height="20" viewBox="0 0 21 20" fill="none" xmlns="http://www.w3.org/2000/svg">
<path d="M2.1665 10.1699C2.1665 8.26287 2.1665 7.30936 2.59917 6.51891C3.03184 5.72847 3.82229 5.23789 5.4032 4.25673L7.06986 3.22235C8.74099 2.1852 9.57656 1.66663 10.4998 1.66663C11.4231 1.66663 12.2587 2.1852 13.9298 3.22235L15.5965 4.25673C17.1774 5.23789 17.9678 5.72847 18.4005 6.51891C18.8332 7.30936 18.8332 8.26287 18.8332 10.1699V11.4374C18.8332 14.6882 18.8332 16.3135 17.8569 17.3234C16.8805 18.3333 15.3092 18.3333 12.1665 18.3333H8.83317C5.69047 18.3333 4.11913 18.3333 3.14281 17.3234C2.1665 16.3135 2.1665 14.6882 2.1665 11.4374V10.1699Z" stroke="white" stroke-width="1.5"/>
<path d="M10.5 12.5L10.5 15" stroke="white" stroke-width="1.5" stroke-linecap="round"/>
</svg>
