<svg width="30" height="30" viewBox="0 0 346 475" fill="none" xmlns="http://www.w3.org/2000/svg">
<path d="M142.313 73.4304C142.313 76.4304 142.313 76.4304 140.774 77.9734C139.742 78.7875 139.742 78.7875 138.688 79.6179C130.057 86.9376 125.192 95.2407 123.966 106.669C123.625 119.035 126.255 128.965 134.313 138.43C141.168 145.408 148.788 150.511 157.188 155.43C158.414 156.16 159.64 156.891 160.864 157.623C163.404 159.14 165.947 160.651 168.492 162.159C174.013 165.435 179.498 168.77 184.983 172.105C186.751 173.181 188.52 174.255 190.29 175.328C198.107 180.074 205.894 184.867 213.661 189.694C219.959 193.604 226.288 197.461 232.626 201.305C243.641 207.992 254.576 214.802 265.486 221.659C268.181 223.348 270.884 225.022 273.591 226.692C286.827 234.893 298.951 243.718 310.313 254.43C311.049 255.102 311.785 255.774 312.544 256.466C334.488 277.245 344.653 304.053 345.516 333.723C345.773 346.453 345.404 358.239 341.86 370.506C341.336 372.349 340.885 374.212 340.438 376.075C338.048 385.583 333.957 393.866 329.313 402.43C328.756 403.482 328.199 404.534 327.626 405.618C311.602 434.583 284.995 455.331 254.063 466.368C253.309 466.638 252.555 466.909 251.777 467.187C239.341 471.368 227.19 472.933 214.162 472.822C211.946 472.806 209.732 472.822 207.516 472.841C193.769 472.862 180.277 471.076 167.313 466.305C166.483 466.005 165.652 465.704 164.797 465.394C149.702 459.739 136.737 451.637 124.313 441.43C123.758 440.974 123.202 440.518 122.63 440.048C110.379 429.804 101.153 417.284 93.3132 403.43C92.7305 402.437 92.1479 401.443 91.5476 400.419C81.8159 382.599 77.1959 362.824 76.9714 342.677C76.7902 337.138 76.0469 333.799 72.3132 329.43C68.2621 326.788 65.1294 325.728 60.3132 326.43C56.3138 328.584 54.0149 330.229 52.3132 334.43C49.0199 366.571 60.621 403.707 80.5632 429.055C97.6347 448.924 118.841 463.873 143.313 473.43C143.313 473.76 143.313 474.09 143.313 474.43C106.379 475.765 71.1455 463.06 43.7043 437.959C29.7501 424.945 19.5617 410.607 11.3132 393.43C10.9736 392.737 10.634 392.044 10.2841 391.33C7.46375 385.332 5.73411 379.222 4.1257 372.805C3.86595 371.808 3.6062 370.81 3.33859 369.782C0.913249 360.306 0.107695 351.448 0.0631968 341.68C0.0425718 340.564 0.0219468 339.448 0.000696764 338.298C-0.0839817 320.134 7.55452 304.32 20.2468 291.473C34.0996 278.68 50.6304 273.791 69.0827 274.087C85.1499 274.788 99.187 283.36 110.313 294.43C111.381 295.446 111.381 295.446 112.469 296.481C120.928 305.119 127.253 318.531 127.805 330.614C127.868 331.781 127.93 332.949 127.995 334.151C128.059 335.378 128.122 336.604 128.188 337.868C129.78 362.434 137.25 382.296 155.313 399.43C155.927 400.039 156.54 400.647 157.173 401.274C171.619 414.719 190.873 420.827 210.251 420.68C211.781 420.692 211.781 420.692 213.342 420.704C234.897 420.649 254.544 411.534 270.079 396.786C281.262 384.996 288.274 370.04 292.313 354.43C292.488 353.818 292.663 353.206 292.844 352.576C296.837 334.325 292.182 314.919 282.313 299.43C274.959 289.453 265.341 282.536 254.938 276.055C254.135 275.551 253.332 275.047 252.505 274.528C244.352 269.425 236.153 264.4 227.955 259.37C221.314 255.292 214.704 251.171 208.126 246.993C197.369 240.174 186.47 233.66 175.422 227.322C160.809 218.936 146.367 210.3 132.015 201.476C130.324 200.437 128.632 199.401 126.939 198.364C80.1022 169.639 80.1022 169.639 73.9734 145.575C71.6725 133.154 71.6471 118.881 77.3132 107.43C77.7876 106.442 78.2619 105.453 78.7507 104.434C85.2508 92.1685 94.8597 83.4134 107.313 77.4304C108.177 76.9973 109.041 76.5642 109.93 76.1179C120.096 71.8748 131.515 73.0736 142.313 73.4304Z" fill="white"/>
<path d="M202.363 0.0596705C240.328 -1.00038 275.75 12.078 303.703 38.1456C328.241 61.5648 344.097 92.8364 345.363 127.06C345.39 127.729 345.417 128.399 345.445 129.089C346.153 148.628 340.837 165.761 327.765 180.665C315.539 192.851 299.065 200.022 281.8 200.372C279.653 200.303 277.507 200.2 275.363 200.06C273.934 199.973 273.934 199.973 272.476 199.884C256.936 198.124 242.225 189.127 232.175 177.435C227.639 171.474 224.312 164.922 221.363 158.06C220.958 157.123 220.958 157.123 220.544 156.168C217.984 149.523 217.672 142.71 217.199 135.675C215.466 111.01 208.039 92.7885 190.363 75.0597C189.718 74.3919 189.074 73.7242 188.41 73.0362C173.176 58.3983 149.847 52.4256 129.328 52.7433C105.515 54.6436 85.1434 66.3071 69.6753 84.3097C55.2399 102.622 50.2957 125.455 52.605 148.474C55.6765 165.21 65.2419 180.743 78.8408 190.913C81.5674 192.765 84.3264 194.549 87.1128 196.31C88.1192 196.956 89.1257 197.602 90.1626 198.268C97.3909 202.882 104.709 207.339 112.085 211.713C117.715 215.053 123.275 218.487 128.8 221.997C130.384 223.001 131.967 224.005 133.55 225.009C134.342 225.511 135.133 226.013 135.949 226.53C148.12 234.243 160.387 241.707 172.925 248.81C186.104 256.276 199.084 264.037 211.982 271.978C214.229 273.362 216.478 274.743 218.728 276.122C264.807 304.38 264.807 304.38 271.437 327.638C275.598 345.118 271.984 360.996 262.925 376.122C254.514 388.382 241.587 397.187 227.01 400.613C224.374 401.058 221.952 401.174 219.281 401.157C218.349 401.154 217.418 401.151 216.458 401.148C215.499 401.139 214.539 401.131 213.55 401.122C212.571 401.118 211.592 401.113 210.583 401.108C208.177 401.097 205.77 401.08 203.363 401.06C203.363 398.06 203.363 398.06 204.937 396.482C205.634 395.93 206.332 395.378 207.05 394.81C215.064 388.039 219.701 379.489 221.363 369.06C222.26 358.106 220.804 348.312 214.175 339.31C207.456 331.444 199.887 325.935 191.003 320.778C185.328 317.48 179.758 314.012 174.175 310.56C164.927 304.855 155.656 299.19 146.363 293.56C134.074 286.112 121.828 278.596 109.598 271.052C106.312 269.028 103.021 267.01 99.73 264.993C51.9498 235.707 51.9498 235.707 33.3628 218.06C32.6564 217.429 31.95 216.799 31.2222 216.15C12.7824 199.097 1.50255 173.166 0.157952 148.266C0.0552653 144.822 0.0364064 141.38 0.0471125 137.934C0.0502623 135.826 0.0267495 133.719 0.00145816 131.61C-0.0614748 118.406 1.91007 105.708 6.42529 93.2472C6.72129 92.4202 7.01729 91.5933 7.32226 90.7413C14.2795 72.0421 24.6932 56.5197 38.3628 42.0597C39.1208 41.2372 39.8787 40.4148 40.6597 39.5675C56.412 23.043 77.6521 11.4765 99.4878 5.30967C100.191 5.11091 100.895 4.91216 101.62 4.70738C112.582 1.77048 123.152 0.754348 134.488 0.872171C135.705 0.872815 136.922 0.87346 138.175 0.874124C147.081 0.918751 147.081 0.918751 149.363 2.05967C150.799 2.14099 152.237 2.19901 153.675 2.24717C178.904 4.40207 203.613 17.5814 222.363 34.0597C223.203 34.7674 224.044 35.4751 224.91 36.2042C247.499 55.6717 265.696 86.9589 268.363 117.06C268.435 118.841 268.498 120.622 268.554 122.403C268.603 123.87 268.603 123.87 268.653 125.367C268.708 127.334 268.744 129.302 268.759 131.27C268.893 137.013 269.427 140.558 273.363 145.06C277.602 147.886 281.384 147.72 286.363 147.06C289.758 145.009 291.166 143.355 293.363 140.06C293.564 137.288 293.647 134.642 293.613 131.872C293.604 131.063 293.595 130.255 293.586 129.421C293.166 107.182 287.526 84.8862 277.363 65.0597C277.052 64.4509 276.742 63.8421 276.422 63.2149C260.54 32.6445 232.939 14.7222 202.363 1.05967C202.363 0.72967 202.363 0.399671 202.363 0.0596705Z" fill="white"/>
</svg>
